<?xml version="1.0" encoding="UTF-8"?>
<svg version="1.1" xmlns="http://www.w3.org/2000/svg" width="349" height="292">
<path d="M0 0 C6.87683763 6.46919003 11.3422409 15.29684236 13.515625 24.42578125 C14.10126221 24.44036377 14.68689941 24.45494629 15.2902832 24.4699707 C27.69685569 24.80930191 39.99109618 25.54166745 52.328125 26.92578125 C54.07959839 27.12167847 54.07959839 27.12167847 55.86645508 27.3215332 C64.09054923 28.28408933 64.09054923 28.28408933 67.515625 29.42578125 C67.680625 28.74515625 67.845625 28.06453125 68.015625 27.36328125 C71.17555768 21.17507976 76.53540414 17.53036959 82.890625 14.98828125 C91.78266928 12.14282708 99.93945398 12.79529352 108.515625 16.42578125 C121.09232569 23.04401227 126.89755073 33.26524937 131.5546875 46.34375 C136.25795788 62.98101953 133.95307563 80.9930181 129.97314453 97.50878906 C129.42558617 99.80304108 128.95757402 102.10903797 128.515625 104.42578125 C129.10053711 104.5865918 129.68544922 104.74740234 130.28808594 104.91308594 C132.95129238 105.65362847 135.60829004 106.41445112 138.265625 107.17578125 C139.18601562 107.4284375 140.10640625 107.68109375 141.0546875 107.94140625 C149.59304606 110.41629279 149.59304606 110.41629279 152.515625 114.42578125 C153.88475827 117.89425219 153.64051455 119.12247805 152.203125 122.61328125 C149.48813569 127.13826343 149.48813569 127.13826343 146.18359375 128.11523438 C143.34933187 128.44513748 141.55770155 128.16828725 138.828125 127.39453125 C137.96445312 127.16121094 137.10078125 126.92789063 136.2109375 126.6875 C134.4140625 126.1796875 132.6171875 125.671875 130.8203125 125.1640625 C129.95664062 124.93074219 129.09296875 124.69742188 128.203125 124.45703125 C127.42324219 124.23595703 126.64335937 124.01488281 125.83984375 123.78710938 C123.07790911 123.35773298 121.1807782 123.59694152 118.515625 124.42578125 C116.72199944 126.44470725 115.22740942 128.34792284 113.703125 130.55078125 C106.41733297 140.50108378 98.03399728 146.73254574 86.953125 152.17578125 C84.38818691 153.18748583 84.38818691 153.18748583 83.515625 155.42578125 C83.24627523 157.71525429 83.00011433 160.00747559 82.765625 162.30078125 C80.97103898 176.94369005 74.13620266 188.36839835 62.76171875 197.76953125 C47.46208922 209.05134502 29.889805 213.4305833 11.06298828 211.12548828 C-20.72041597 206.27612534 -49.32339447 188.47407287 -68.71044922 162.80224609 C-75.65392845 153.29066728 -80.76829863 143.18844717 -85.484375 132.42578125 C-86.24468018 132.43101807 -87.00498535 132.43625488 -87.78833008 132.44165039 C-91.2911697 132.46266051 -94.793996 132.47551699 -98.296875 132.48828125 C-100.0902832 132.50084961 -100.0902832 132.50084961 -101.91992188 132.51367188 C-123.76380845 132.573192 -123.76380845 132.573192 -129.484375 128.42578125 C-132.11261852 124.81194641 -132.58819082 123.19142292 -131.984375 118.73828125 C-130.22331298 114.84926929 -129.31002501 114.1628314 -125.484375 112.42578125 C-122.82929136 112.17438359 -120.4228402 112.07396074 -117.77734375 112.1328125 C-116.68925163 112.13917976 -116.68925163 112.13917976 -115.57917786 112.14567566 C-113.27635609 112.16238582 -110.97442947 112.20002165 -108.671875 112.23828125 C-107.1048304 112.25333809 -105.537772 112.26702475 -103.97070312 112.27929688 C-100.14158543 112.31226394 -96.31313166 112.36399133 -92.484375 112.42578125 C-92.56139648 111.25523193 -92.63841797 110.08468262 -92.71777344 108.87866211 C-93.00916772 104.39600398 -93.25651166 99.91209061 -93.484375 95.42578125 C-93.54109375 94.34167969 -93.5978125 93.25757813 -93.65625 92.140625 C-94.47860874 60.93211098 -83.12205534 29.93356897 -62.1875 6.8984375 C-45.12974371 -9.84449443 -19.94639859 -15.63758919 0 0 Z M-54.73828125 26.95703125 C-68.36138716 44.23251584 -74.68940596 68.06896762 -74.671875 89.80078125 C-74.67251953 90.63134033 -74.67316406 91.46189941 -74.67382812 92.31762695 C-74.6227356 98.2507459 -73.99492546 103.66680764 -72.484375 109.42578125 C-60.50046771 107.22873158 -50.44787488 102.34405713 -40.484375 95.42578125 C-39.57429688 94.94625 -38.66421875 94.46671875 -37.7265625 93.97265625 C-34.60820781 92.00818816 -33.179584 90.72744484 -31.484375 87.42578125 C-30.8533683 81.12147687 -32.09278235 74.73301969 -33.03076172 68.51025391 C-33.78655412 63.37102826 -34.337566 58.21815732 -34.859375 53.05078125 C-35.03980347 51.63526978 -35.03980347 51.63526978 -35.22387695 50.19116211 C-35.87304609 43.95791036 -35.32071057 39.52557596 -31.484375 34.42578125 C-27.19419056 30.57188675 -21.18645752 30.19009301 -15.671875 29.23828125 C-14.69283203 29.06103516 -13.71378906 28.88378906 -12.70507812 28.70117188 C-10.29963829 28.26701932 -7.89293476 27.84221299 -5.484375 27.42578125 C-7.63868762 20.61169992 -10.36068026 15.41330341 -16.484375 11.42578125 C-32.93375116 5.44418992 -44.33330779 15.2717231 -54.73828125 26.95703125 Z M83.515625 37.42578125 C83.22447279 39.97411346 83.04625701 42.43125552 82.953125 44.98828125 C82.88950081 46.53261377 82.82435253 48.07688412 82.7578125 49.62109375 C82.72397461 50.41547852 82.69013672 51.20986328 82.65527344 52.02832031 C82.51945927 54.35995517 82.29015719 56.66051065 82.0234375 58.98046875 C81.20172385 66.58762145 80.74732194 72.69638863 85.5234375 79.15625 C86.18085938 79.90519531 86.83828125 80.65414062 87.515625 81.42578125 C88.62550781 82.71935547 88.62550781 82.71935547 89.7578125 84.0390625 C95.23660148 89.94670237 101.08724782 94.25324516 108.515625 97.42578125 C109.175625 97.42578125 109.835625 97.42578125 110.515625 97.42578125 C111.00036178 95.73987283 111.47811426 94.0519558 111.953125 92.36328125 C112.21996094 91.42355469 112.48679687 90.48382813 112.76171875 89.515625 C115.94724292 76.45992751 116.88544527 58.97079239 111.515625 46.42578125 C111.2371875 45.76835938 110.95875 45.1109375 110.671875 44.43359375 C108.35253606 39.77492157 105.03747489 35.98645003 100.515625 33.42578125 C93.39118188 31.43316356 88.80315423 32.13825202 83.515625 37.42578125 Z M78.515625 99.42578125 C77.9804525 103.29894085 77.4650464 107.17448558 76.953125 111.05078125 C76.80166016 112.14519531 76.65019531 113.23960937 76.49414062 114.3671875 C76.35556641 115.43066406 76.21699219 116.49414062 76.07421875 117.58984375 C75.94329834 118.5638916 75.81237793 119.53793945 75.67749023 120.54150391 C75.36872867 126.04332769 76.43945174 129.87839469 79.515625 134.42578125 C89.3198676 131.71821425 96.00492052 123.64703549 101.515625 115.42578125 C97.67494135 112.22642618 93.67388274 109.51747991 89.453125 106.86328125 C85.70979675 104.50052717 82.03912086 102.10973342 78.515625 99.42578125 Z M-35.171875 112.98828125 C-44.66626423 119.45547391 -55.63397472 123.79394249 -66.484375 127.42578125 C-65.9219166 132.11293458 -63.84935154 135.66267233 -61.421875 139.61328125 C-60.8189563 140.60521484 -60.8189563 140.60521484 -60.20385742 141.6171875 C-56.71501616 147.25306072 -52.79163699 152.38831819 -48.484375 157.42578125 C-48.00742188 158.03550781 -47.53046875 158.64523438 -47.0390625 159.2734375 C-39.64061563 168.55320372 -29.37443663 175.09130897 -19.484375 181.42578125 C-18.824375 181.09578125 -18.164375 180.76578125 -17.484375 180.42578125 C-18.4125 179.55953125 -18.4125 179.55953125 -19.359375 178.67578125 C-24.26773789 171.1688733 -23.91442143 160.20378728 -24.73828125 151.421875 C-24.84405991 150.33616714 -24.94983856 149.25045929 -25.05882263 148.1318512 C-25.39205864 144.70935688 -25.72004766 141.28639308 -26.046875 137.86328125 C-26.37751237 134.40806059 -26.70939661 130.95298623 -27.04563904 127.49830627 C-27.25377754 125.35957995 -27.45869968 123.22053762 -27.66004944 121.0811615 C-27.75362228 120.11908279 -27.84719513 119.15700409 -27.94360352 118.16577148 C-28.02417496 117.32038315 -28.1047464 116.47499481 -28.1877594 115.60398865 C-28.43962765 113.25113804 -28.43962765 113.25113804 -29.484375 110.42578125 C-32.15159078 110.42578125 -33.02118645 111.41930275 -35.171875 112.98828125 Z M-6.484375 186.42578125 C-3.88191337 188.16075567 -2.02347832 189.03846259 0.890625 189.98828125 C1.64085937 190.23707031 2.39109375 190.48585937 3.1640625 190.7421875 C15.72986729 194.39503773 30.56087224 193.82216059 42.515625 188.42578125 C43.175625 187.76578125 43.835625 187.10578125 44.515625 186.42578125 C27.685625 186.42578125 10.855625 186.42578125 -6.484375 186.42578125 Z " fill="#A0D1DF" transform="translate(154.484375,49.57421875)"/>
<path d="M0 0 C52.27204748 -1.40226293 52.27204748 -1.40226293 67.75 9.25 C71.90918706 14.33345085 71.09539378 20.16644245 70.4765625 26.3984375 C70.20252334 28.72513535 69.91843715 31.05066892 69.625 33.375 C69.48578125 34.56222656 69.3465625 35.74945313 69.203125 36.97265625 C68.14773261 45.70453477 68.14773261 45.70453477 67 48 C66.009827 53.69655082 65.99892488 59.3615658 66.125 65.125 C66.23778852 72.42738008 65.51460574 79.56918522 64.625 86.8125 C64.49883301 87.86904785 64.37266602 88.9255957 64.24267578 90.01416016 C64.1136084 91.00593262 63.98454102 91.99770508 63.8515625 93.01953125 C63.73635254 93.90745361 63.62114258 94.79537598 63.50244141 95.71020508 C63 98 63 98 61 101 C60.43152344 100.07058594 59.86304688 99.14117187 59.27734375 98.18359375 C50.84160319 84.58941254 41.90774642 75.21718763 26.18359375 70.44921875 C17.7733673 68.71902905 9.50000072 69.15047012 2.05078125 73.52734375 C-4.04186959 77.90244731 -7.06135212 83.90559668 -9 91 C-10.18612096 100.56218498 -8.12894543 109.48287856 -2.95703125 117.57421875 C3.64930126 125.76290635 13.78270309 130.90414422 24 133 C26.0976396 133.08120233 28.19768762 133.10755808 30.296875 133.09765625 C31.50214844 133.09443359 32.70742187 133.09121094 33.94921875 133.08789062 C35.83060547 133.07532227 35.83060547 133.07532227 37.75 133.0625 C39.01972656 133.05798828 40.28945312 133.05347656 41.59765625 133.04882812 C44.73181836 133.03704556 47.86588541 133.02059416 51 133 C50.07292063 143.07929319 46.04462541 150.61912724 38.7109375 157.66015625 C35.01178788 160.5569789 32.07511167 161.2604974 27.39282227 161.36645508 C25.70570885 161.41078423 25.70570885 161.41078423 23.98451233 161.45600891 C22.77403732 161.47697128 21.56356232 161.49793365 20.31640625 161.51953125 C19.06874985 161.54601242 17.82109344 161.57249359 16.53562927 161.59977722 C13.89699724 161.65245644 11.25865929 161.70092365 8.61987305 161.74291992 C5.24573729 161.79760377 1.8725631 161.87512426 -1.50096035 161.95886707 C-4.72824753 162.03495535 -7.95590653 162.08844272 -11.18359375 162.14453125 C-12.39204453 162.17561478 -13.6004953 162.2066983 -14.8455658 162.23872375 C-15.97346024 162.25251572 -17.10135468 162.26630768 -18.26342773 162.28051758 C-19.25285873 162.2989119 -20.24228973 162.31730621 -21.26170349 162.33625793 C-26.30213061 161.71730246 -29.53252784 158.86973607 -32.6875 155.0625 C-35.29099049 151.50636659 -36.50346 148.78898768 -37.12866211 144.43164062 C-37.28188934 143.37702637 -37.43511658 142.32241211 -37.59298706 141.23583984 C-38.22968739 136.17393618 -38.77593776 131.11050902 -39.25390625 126.03125 C-39.35968491 124.94791382 -39.46546356 123.86457764 -39.57444763 122.74841309 C-39.90766737 119.33263713 -40.23559969 115.91638609 -40.5625 112.5 C-40.89337087 109.05509284 -41.22547467 105.61032493 -41.56126404 102.16589355 C-41.76903244 100.0337748 -41.97395251 97.90137607 -42.17567444 95.76867676 C-42.26924728 94.80667358 -42.36282013 93.84467041 -42.45922852 92.85351562 C-42.53979996 92.0103479 -42.6203714 91.16718018 -42.7033844 90.29846191 C-42.98274229 88.13372925 -43.42223782 86.10265872 -44 84 C-43.09378906 83.24976563 -42.18757813 82.49953125 -41.25390625 81.7265625 C-21.1677101 64.92865544 -3.45382834 43.46830728 -0.74316406 16.43896484 C-0.32569551 10.96293597 -0.11934558 5.48989651 0 0 Z " fill="#016A98" transform="translate(168,75)"/>
<path d="M0 0 C1.12649077 25.84670498 -9.15928682 42.15945213 -26 61 C-27.50567152 58.26103011 -28.30678679 56.01044404 -28.65771484 52.90917969 C-28.75055756 52.11445251 -28.84340027 51.31972534 -28.9390564 50.50091553 C-29.02877716 49.64983215 -29.11849792 48.79874878 -29.2109375 47.921875 C-29.30637848 47.03647034 -29.40181946 46.15106567 -29.50015259 45.23883057 C-29.6977858 43.36655712 -29.89082392 41.49379371 -30.07958984 39.62060547 C-30.37279311 36.77144515 -30.69958239 33.92739415 -31.02734375 31.08203125 C-31.21563513 29.25802739 -31.40189859 27.43381283 -31.5859375 25.609375 C-31.68780365 24.76638855 -31.7896698 23.9234021 -31.8946228 23.05487061 C-32.43940451 17.10568512 -31.43322428 12.94268957 -28 8 C-23.11037403 3.51846118 -17.52135611 2.80204962 -11.1875 1.75 C-10.22134766 1.57726562 -9.25519531 1.40453125 -8.25976562 1.2265625 C-1.33358135 0 -1.33358135 0 0 0 Z " fill="#036A97" transform="translate(150,76)"/>
<path d="M0 0 C11.33978541 2.32238805 19.29003638 11.56480142 25.37890625 20.75 C27.08962018 23.62032539 28.12488316 26.12375367 28.44140625 29.5 C21.67450815 32.88344905 8.6546027 31.2192033 1.56640625 29.3125 C-2.39929537 27.85036305 -4.88587265 25.82065348 -7.55859375 22.5 C-8.13609375 21.79875 -8.71359375 21.0975 -9.30859375 20.375 C-11.96380278 16.39218646 -12.07468577 12.13577393 -11.55859375 7.5 C-9.107485 2.13090464 -6.0683071 -0.17880831 0 0 Z " fill="#036B98" transform="translate(187.55859375,160.5)"/>
<path d="M0 0 C0.33 0 0.66 0 1 0 C1.32316212 11.49020882 1.04625896 22.70630858 -0.375 34.125 C-0.56412964 35.67960937 -0.56412964 35.67960937 -0.75708008 37.265625 C-1.73770664 44.60655996 -1.73770664 44.60655996 -4 48 C-6.48772258 44.7162062 -7.03180444 43.38801417 -6.6875 39.1875 C-6.460625 38.135625 -6.23375 37.08375 -6 36 C-4.515 35.505 -4.515 35.505 -3 35 C-2.94465088 33.97527588 -2.88930176 32.95055176 -2.83227539 31.89477539 C-2.62638264 28.10576861 -2.41435583 24.31712602 -2.20043945 20.52856445 C-2.10858519 18.88640523 -2.01841195 17.24415111 -1.92993164 15.60180664 C-1.80272457 13.24598861 -1.66954596 10.89057406 -1.53515625 8.53515625 C-1.49656998 7.79660904 -1.4579837 7.05806183 -1.41822815 6.2971344 C-1.11387171 1.11387171 -1.11387171 1.11387171 0 0 Z " fill="#126486" transform="translate(233,128)"/>
<path d="M0 0 C1.98 0 3.96 0 6 0 C6.33 0.66 6.66 1.32 7 2 C25.15 2.33 43.3 2.66 62 3 C62 3.33 62 3.66 62 4 C54.65486538 4.20050217 47.30951136 4.38418464 39.96342945 4.54658794 C36.55209119 4.62252874 33.14109275 4.7041896 29.73022461 4.79907227 C25.80615785 4.9079772 21.88174585 4.99173488 17.95703125 5.07421875 C16.73603226 5.11157639 15.51503326 5.14893402 14.2570343 5.18742371 C12.54582649 5.21779472 12.54582649 5.21779472 10.80004883 5.2487793 C9.79855301 5.27320602 8.79705719 5.29763275 7.76521301 5.32279968 C4.49447317 4.94098686 2.61741642 3.97081182 0 2 C0 1.34 0 0.68 0 0 Z " fill="#3381A1" transform="translate(139,232)"/>
<path d="M0 0 C0.57446809 18.34042553 0.57446809 18.34042553 -3 27 C-3.33 27 -3.66 27 -4 27 C-4 22.71 -4 18.42 -4 14 C-3.34 13.67 -2.68 13.34 -2 13 C-1.53248212 10.64400765 -1.53248212 10.64400765 -1.375 7.9375 C-1.25125 6.308125 -1.1275 4.67875 -1 3 C-4.3 3 -7.6 3 -11 3 C-11 2.67 -11 2.34 -11 2 C-9.35440244 1.66550467 -7.70851502 1.33243501 -6.0625 1 C-5.14597656 0.814375 -4.22945312 0.62875 -3.28515625 0.4375 C-1 0 -1 0 0 0 Z " fill="#126C90" transform="translate(150,76)"/>
<path d="M0 0 C0.66 0.33 1.32 0.66 2 1 C1.98839844 1.73605469 1.97679688 2.47210938 1.96484375 3.23046875 C1.95582031 4.20628906 1.94679688 5.18210938 1.9375 6.1875 C1.92589844 7.15042969 1.91429688 8.11335937 1.90234375 9.10546875 C1.90824154 11.9127273 1.90824154 11.9127273 2.5 14.25 C3.25962867 18.42795766 3.10356626 22.57635728 3.0625 26.8125 C3.05798828 27.69615234 3.05347656 28.57980469 3.04882812 29.49023438 C3.03709866 31.66018559 3.01916495 33.83010172 3 36 C2.67 36 2.34 36 2 36 C1.91435791 35.1121582 1.82871582 34.22431641 1.74047852 33.30957031 C1.42045579 30.00691853 1.09773392 26.70455344 0.77319336 23.40234375 C0.63344246 21.97471459 0.49475946 20.54698046 0.35717773 19.11914062 C0.15891576 17.06351464 -0.04321894 15.00830023 -0.24609375 12.953125 C-0.36654053 11.71723633 -0.4869873 10.48134766 -0.61108398 9.20800781 C-0.89775614 6.11914707 -0.89775614 6.11914707 -1.67211914 3.69042969 C-1.78031982 3.13258789 -1.88852051 2.57474609 -2 2 C-1.34 1.34 -0.68 0.68 0 0 Z " fill="#1A6B8D" transform="translate(126,157)"/>
<path d="M0 0 C0.66 0.99 1.32 1.98 2 3 C1.21069203 5.48935591 0.1651105 7.669779 -1 10 C-1.61359375 10.29648438 -2.2271875 10.59296875 -2.859375 10.8984375 C-5.29827286 12.15349078 -6.52612885 13.50933995 -8.25 15.625 C-9.03117188 16.57246094 -9.03117188 16.57246094 -9.828125 17.5390625 C-10.21484375 18.02117187 -10.6015625 18.50328125 -11 19 C-11.66 18.34 -12.32 17.68 -13 17 C-12.56429687 16.52691406 -12.12859375 16.05382812 -11.6796875 15.56640625 C-7.26689603 10.66648845 -3.52096516 5.57163718 0 0 Z " fill="#0A6C94" transform="translate(156,124)"/>
<path d="M0 0 C-2.46735884 2.46735884 -4.72171521 2.9072384 -8 4 C-8.66 4.66 -9.32 5.32 -10 6 C-10.66 5.67 -11.32 5.34 -12 5 C-14.22083786 5.92038921 -14.22083786 5.92038921 -16.5625 7.3125 C-17.77099609 7.98732422 -17.77099609 7.98732422 -19.00390625 8.67578125 C-21.13201089 9.84893751 -21.13201089 9.84893751 -22 12 C-24.5625 12.625 -24.5625 12.625 -27 13 C-23.3790937 9.00736568 -19.77061254 6.54836125 -14.875 4.25 C-14.25496094 3.94707031 -13.63492188 3.64414062 -12.99609375 3.33203125 C-8.4616827 1.13796139 -5.04621816 -0.13638427 0 0 Z " fill="#AACED7" transform="translate(124,41)"/>
<path d="M0 0 C3.915141 3.35583515 6.0795774 7.28066362 8 12 C8 12.66 8 13.32 8 14 C5.65147472 15.17426264 4.26225935 15.11508173 1.6484375 15.09765625 C0.79765625 15.09443359 -0.053125 15.09121094 -0.9296875 15.08789062 C-1.81914062 15.07951172 -2.70859375 15.07113281 -3.625 15.0625 C-4.97078125 15.05573242 -4.97078125 15.05573242 -6.34375 15.04882812 C-8.56256648 15.03702591 -10.78125018 15.02056155 -13 15 C-13 14.67 -13 14.34 -13 14 C-12.02417969 13.93941406 -11.04835937 13.87882813 -10.04296875 13.81640625 C-8.77066406 13.73261719 -7.49835938 13.64882812 -6.1875 13.5625 C-4.92292969 13.48128906 -3.65835938 13.40007812 -2.35546875 13.31640625 C0.99181893 13.12815453 0.99181893 13.12815453 4 12 C3.43111163 8.0177814 2.10998585 5.39432507 0 2 C0 1.34 0 0.68 0 0 Z " fill="#176F90" transform="translate(208,176)"/>
<path d="M0 0 C1.0546875 1.859375 1.0546875 1.859375 2 4 C1.125 6.25 1.125 6.25 0 8 C-0.66 8 -1.32 8 -2 8 C-1.67 5.69 -1.34 3.38 -1 1 C-1.71567139 1.16298584 -2.43134277 1.32597168 -3.16870117 1.49389648 C-5.95480197 1.99192071 -8.47462208 2.1141835 -11.30078125 2.09765625 C-12.27724609 2.09443359 -13.25371094 2.09121094 -14.25976562 2.08789062 C-15.26716797 2.07951172 -16.27457031 2.07113281 -17.3125 2.0625 C-18.33923828 2.05798828 -19.36597656 2.05347656 -20.42382812 2.04882812 C-22.94927882 2.03708184 -25.47460905 2.02065565 -28 2 C-28 1.67 -28 1.34 -28 1 C-18.65190221 0.33566818 -9.37877608 -0.1598655 0 0 Z " fill="#7CC2DA" transform="translate(220,207)"/>
<path d="M0 0 C0.33 0 0.66 0 1 0 C1.05859857 3.35409194 1.09379582 6.70805017 1.125 10.0625 C1.15013672 11.47692383 1.15013672 11.47692383 1.17578125 12.91992188 C1.21372771 18.36523938 0.81252643 22.85499388 -1 28 C-1.33 28 -1.66 28 -2 28 C-2.13479442 18.98375128 -2.04962241 9.96714451 -1 1 C-0.67 0.67 -0.34 0.34 0 0 Z " fill="#1F7293" transform="translate(233,128)"/>
<path d="M0 0 C0.89203125 0.01804688 1.7840625 0.03609375 2.703125 0.0546875 C3.71632813 0.08949219 3.71632813 0.08949219 4.75 0.125 C4.75 0.455 4.75 0.785 4.75 1.125 C0.46 1.785 -3.83 2.445 -8.25 3.125 C-9.14377528 6.70010111 -9.2758444 8.37417563 -8.8125 11.875 C-8.71066406 12.67421875 -8.60882812 13.4734375 -8.50390625 14.296875 C-8.42011719 14.90015625 -8.33632813 15.5034375 -8.25 16.125 C-11.02166871 13.52562421 -12.06859978 12.02510467 -12.25 8.125 C-10.26117667 2.78657948 -10.26117667 2.78657948 -7.46484375 0.95703125 C-4.83643757 -0.03035943 -2.79937858 -0.07366786 0 0 Z " fill="#AFCDD7" transform="translate(34.25,161.875)"/>
<path d="M0 0 C2 2 2 2 2.125 5.625 C2.08375 6.73875 2.0425 7.8525 2 9 C2.66 9 3.32 9 4 9 C4 9.99 4 10.98 4 12 C4.99 12 5.98 12 7 12 C7.33 12.66 7.66 13.32 8 14 C10.01669827 15.13350534 10.01669827 15.13350534 12 16 C11.34 16.66 10.68 17.32 10 18 C5.02350414 15.37351608 1.80420129 12.41260386 0 7 C-0.03954234 4.66700175 -0.04401732 2.33291811 0 0 Z " fill="#126785" transform="translate(131,215)"/>
<path d="M0 0 C-3.65269224 2.33366448 -6.61594376 4 -11 4 C-11.226875 4.639375 -11.45375 5.27875 -11.6875 5.9375 C-13 8 -13 8 -15.625 8.75 C-16.40875 8.8325 -17.1925 8.915 -18 9 C-14.47852281 3.39764993 -6.84911902 -2.56841963 0 0 Z " fill="#86C8DE" transform="translate(182,145)"/>
<path d="M0 0 C0.33 0.99 0.66 1.98 1 3 C0.01 3.66 -0.98 4.32 -2 5 C-2.58687784 8.34613512 -2.58687784 8.34613512 -2.6875 12.125 C-2.75324219 13.40632813 -2.81898437 14.68765625 -2.88671875 16.0078125 C-2.92410156 16.99523437 -2.96148437 17.98265625 -3 19 C-3.33 19 -3.66 19 -4 19 C-4.33 13.06 -4.66 7.12 -5 1 C-2 0 -2 0 0 0 Z " fill="#0E668A" transform="translate(126,114)"/>
<path d="M0 0 C0.99 0 1.98 0 3 0 C3 0.99 3 1.98 3 3 C3.61875 2.814375 4.2375 2.62875 4.875 2.4375 C7 2 7 2 9 3 C9 5.97 9 8.94 9 12 C5.72764488 8.84884322 2.7974276 5.57449082 0 2 C0 1.34 0 0.68 0 0 Z " fill="#096F99" transform="translate(217,157)"/>
<path d="M0 0 C9.405 2.475 9.405 2.475 19 5 C19 5.66 19 6.32 19 7 C14.61737339 6.51304149 10.40618519 5.69111 6.125 4.625 C5.17882812 4.39039063 4.23265625 4.15578125 3.2578125 3.9140625 C2.51273437 3.61242187 1.76765625 3.31078125 1 3 C0.67 2.01 0.34 1.02 0 0 Z " fill="#AACED6" transform="translate(282,154)"/>
<path d="M0 0 C0 4.13781054 -1.71509607 5.20919996 -4.5 8.1875 C-5.3353125 9.08855469 -6.170625 9.98960937 -7.03125 10.91796875 C-8.00578125 11.94857422 -8.00578125 11.94857422 -9 13 C-10.32 12.67 -11.64 12.34 -13 12 C-8.71 8.04 -4.42 4.08 0 0 Z " fill="#116D95" transform="translate(141,144)"/>
<path d="M0 0 C0.33 0 0.66 0 1 0 C1.24687966 2.9625559 1.21079991 4.62056017 -0.25 7.25 C-2.22254753 9.22254753 -3.26605937 9.65825742 -6 10 C-6.99 10 -7.98 10 -9 10 C-7.52417192 8.33037631 -6.04425109 6.6643694 -4.5625 5 C-3.73878906 4.071875 -2.91507813 3.14375 -2.06640625 2.1875 C-1.04353516 1.1046875 -1.04353516 1.1046875 0 0 Z " fill="#92CFE4" transform="translate(133,126)"/>
<path d="M0 0 C1.23556641 0.01740234 1.23556641 0.01740234 2.49609375 0.03515625 C3.32238281 0.04417969 4.14867187 0.05320312 5 0.0625 C5.63808594 0.07410156 6.27617187 0.08570313 6.93359375 0.09765625 C6.93359375 0.75765625 6.93359375 1.41765625 6.93359375 2.09765625 C2.0762973 3.07064781 -2.51646875 3.2180443 -7.44140625 3.16015625 C-8.17746094 3.15564453 -8.91351563 3.15113281 -9.671875 3.14648438 C-11.47008783 3.13480767 -13.26825822 3.11687636 -15.06640625 3.09765625 C-15.06640625 2.76765625 -15.06640625 2.43765625 -15.06640625 2.09765625 C-14.21175781 2.03707031 -13.35710937 1.97648437 -12.4765625 1.9140625 C-10.81947266 1.78837891 -10.81947266 1.78837891 -9.12890625 1.66015625 C-8.02675781 1.57894531 -6.92460937 1.49773437 -5.7890625 1.4140625 C-3.01405801 1.09157274 -2.60201448 0.12296855 0 0 Z " fill="#AACCD3" transform="translate(183.06640625,257.90234375)"/>
<path d="M0 0 C0.99 0.33 1.98 0.66 3 1 C1.59928507 6.29158974 -1.85487245 8.77478044 -6 12 C-5.67 10.35 -5.34 8.7 -5 7 C-3.68 6.67 -2.36 6.34 -1 6 C-1.20625 5.38125 -1.4125 4.7625 -1.625 4.125 C-1.74875 3.42375 -1.8725 2.7225 -2 2 C-1.34 1.34 -0.68 0.68 0 0 Z " fill="#147099" transform="translate(211,221)"/>
<path d="M0 0 C0.99 0.495 0.99 0.495 2 1 C2 1.99 2 2.98 2 4 C2.5775 4.268125 3.155 4.53625 3.75 4.8125 C6.07363365 6.0388622 8.03824646 7.24843434 10 9 C10 9.99 10 10.98 10 12 C5.36505507 10.80815702 3.54899717 8.50210982 0.91796875 4.75390625 C0 3 0 3 0 0 Z " fill="#157294" transform="translate(177,176)"/>
<path d="M0 0 C0.66 0.33 1.32 0.66 2 1 C-0.45765453 3.81347657 -3.06278989 5.19314594 -6.4375 6.75 C-7.38496094 7.19859375 -8.33242187 7.6471875 -9.30859375 8.109375 C-12.21804655 9.07215474 -13.16968588 8.85856257 -16 8 C-13.37964982 6.63610475 -10.75443001 5.28367827 -8.125 3.9375 C-7.37863281 3.54755859 -6.63226563 3.15761719 -5.86328125 2.75585938 C-4.79013672 2.20961914 -4.79013672 2.20961914 -3.6953125 1.65234375 C-3.03547363 1.31195068 -2.37563477 0.97155762 -1.69580078 0.62084961 C-1.13618652 0.41596924 -0.57657227 0.21108887 0 0 Z " fill="#B0D2DA" transform="translate(108,148)"/>
<path d="M0 0 C0 0.66 0 1.32 0 2 C1.32 2.66 2.64 3.32 4 4 C4 4.66 4 5.32 4 6 C4.66 6 5.32 6 6 6 C6.33 7.65 6.66 9.3 7 11 C5.88625 9.8553125 5.88625 9.8553125 4.75 8.6875 C1.38668864 5.40062753 -1.7374307 2.97905003 -6 1 C-3 0 -3 0 0 0 Z " fill="#ACCDDB" transform="translate(257,81)"/>
<path d="M0 0 C-3.13498292 1.85776765 -5.37471432 2.20140476 -9 2 C-9 2.66 -9 3.32 -9 4 C-11.97 4.66 -14.94 5.32 -18 6 C-13.08626378 1.08626378 -6.92634952 -0.53279612 0 0 Z " fill="#ABCFD6" transform="translate(249,63)"/>
<path d="M0 0 C0.66 0 1.32 0 2 0 C1.01 6.27 0.02 12.54 -1 19 C-1.66 19 -2.32 19 -3 19 C-2.69277348 16.02020106 -2.37948528 13.04126241 -2.0625 10.0625 C-1.97548828 9.21236328 -1.88847656 8.36222656 -1.79882812 7.48632812 C-1.71181641 6.67744141 -1.62480469 5.86855469 -1.53515625 5.03515625 C-1.456604 4.2862915 -1.37805176 3.53742676 -1.29711914 2.76586914 C-1 1 -1 1 0 0 Z " fill="#AACED5" transform="translate(237,201)"/>
<path d="M0 0 C0.33 0.66 0.66 1.32 1 2 C0.67 2.66 0.34 3.32 0 4 C-0.66 4 -1.32 4 -2 4 C-2.66 5.32 -3.32 6.64 -4 8 C-4.66 8 -5.32 8 -6 8 C-6 8.66 -6 9.32 -6 10 C-7.98 10.66 -9.96 11.32 -12 12 C-8 8 -4 4 0 0 Z " fill="#A9CED6" transform="translate(252,170)"/>
<path d="M0 0 C3.625 0.375 3.625 0.375 7 1 C4.63379989 3.61527381 2.057952 5.26440562 -1 7 C-1.625 4.625 -1.625 4.625 -2 2 C-1.34 1.34 -0.68 0.68 0 0 Z " fill="#0E6E97" transform="translate(166,145)"/>
<path d="M0 0 C0 0.66 0 1.32 0 2 C-3.3 2.33 -6.6 2.66 -10 3 C-10.33 4.32 -10.66 5.64 -11 7 C-11.33 5.68 -11.66 4.36 -12 3 C-8.2391768 -0.7608232 -5.0273023 -0.25136512 0 0 Z " fill="#237B9B" transform="translate(190,161)"/>
<path d="M0 0 C-0.33 0.99 -0.66 1.98 -1 3 C-7.6 2.67 -14.2 2.34 -21 2 C-21 1.67 -21 1.34 -21 1 C-18.25008168 0.83188272 -15.50007888 0.6654519 -12.75 0.5 C-11.97269531 0.45230469 -11.19539062 0.40460938 -10.39453125 0.35546875 C-9.26337891 0.28779297 -9.26337891 0.28779297 -8.109375 0.21875 C-7.41811523 0.17685547 -6.72685547 0.13496094 -6.01464844 0.09179688 C-4.01161035 0.00052902 -2.0051163 0 0 0 Z " fill="#9BC4CD" transform="translate(188,241)"/>
<path d="M0 0 C0.66 0.99 1.32 1.98 2 3 C1.71125 3.556875 1.4225 4.11375 1.125 4.6875 C-0.0413253 7.08494645 -1.0339881 9.51596939 -2 12 C-2.66 12 -3.32 12 -4 12 C-3.45660208 7.43545749 -2.20536179 4.0271824 0 0 Z " fill="#8FCDE2" transform="translate(163,154)"/>
<path d="M0 0 C0.33 0 0.66 0 1 0 C1.37952295 6.19887485 0.8352113 10.4477112 -2 16 C-2.66 15.34 -3.32 14.68 -4 14 C-2.68 9.38 -1.36 4.76 0 0 Z " fill="#82C7E0" transform="translate(149,93)"/>
<path d="M0 0 C0.71484375 1.734375 0.71484375 1.734375 1 4 C-0.43359375 6.140625 -0.43359375 6.140625 -2.4375 8.25 C-3.09621094 8.95640625 -3.75492188 9.6628125 -4.43359375 10.390625 C-5.20896484 11.18726563 -5.20896484 11.18726563 -6 12 C-6.66 11.34 -7.32 10.68 -8 10 C-7.50628906 9.44570312 -7.01257813 8.89140625 -6.50390625 8.3203125 C-5.86324219 7.59585938 -5.22257813 6.87140625 -4.5625 6.125 C-3.92441406 5.40570313 -3.28632813 4.68640625 -2.62890625 3.9453125 C-0.94985535 2.09249509 -0.94985535 2.09249509 0 0 Z " fill="#17749A" transform="translate(151,131)"/>
<path d="M0 0 C0.66 0.33 1.32 0.66 2 1 C1.67 6.28 1.34 11.56 1 17 C0.67 17 0.34 17 0 17 C-0.06058594 16.25234375 -0.12117188 15.5046875 -0.18359375 14.734375 C-0.26738281 13.74953125 -0.35117188 12.7646875 -0.4375 11.75 C-0.51871094 10.77546875 -0.59992188 9.8009375 -0.68359375 8.796875 C-0.91072733 6.0640452 -0.91072733 6.0640452 -1.66015625 3.765625 C-1.77230469 3.18296875 -1.88445312 2.6003125 -2 2 C-1.34 1.34 -0.68 0.68 0 0 Z " fill="#2E7695" transform="translate(126,157)"/>
<path d="M0 0 C0.66 0.33 1.32 0.66 2 1 C0.54712339 2.33927721 -0.91247259 3.67126847 -2.375 5 C-3.18710938 5.7425 -3.99921875 6.485 -4.8359375 7.25 C-7 9 -7 9 -9 9 C-9 8.34 -9 7.68 -9 7 C-8.34 7 -7.68 7 -7 7 C-7 6.34 -7 5.68 -7 5 C-6.34 5 -5.68 5 -5 5 C-5 4.34 -5 3.68 -5 3 C-2.625 1.3125 -2.625 1.3125 0 0 Z " fill="#8DCFE6" transform="translate(131,151)"/>
<path d="M0 0 C0.66 0.33 1.32 0.66 2 1 C1.071875 1.5878125 1.071875 1.5878125 0.125 2.1875 C-2.33855028 4.28876347 -2.83131583 6.03933342 -4 9 C-4.99 9.33 -5.98 9.66 -7 10 C-5.76075855 5.04303419 -4.21422242 2.88341534 0 0 Z " fill="#196687" transform="translate(126,81)"/>
<path d="M0 0 C2.0625 1.75 2.0625 1.75 4 4 C3.9375 6.125 3.9375 6.125 3 8 C2.01 8.66 1.02 9.32 0 10 C0 6.7 0 3.4 0 0 Z " fill="#1A7395" transform="translate(123,127)"/>
<path d="M0 0 C0.66 0.66 1.32 1.32 2 2 C0.68 4.31 -0.64 6.62 -2 9 C-2.33 9 -2.66 9 -3 9 C-3.1875 5.625 -3.1875 5.625 -3 2 C-2.01 1.34 -1.02 0.68 0 0 Z " fill="#91CDE6" transform="translate(157,118)"/>
<path d="M0 0 C1.34615385 4.03846154 1.34615385 4.03846154 0 7 C-3.0625 9.25 -3.0625 9.25 -6 11 C-4.54955729 6.89041233 -2.48889248 3.56741255 0 0 Z " fill="#ACD0D9" transform="translate(85,65)"/>
<path d="M0 0 C2.25 0.125 2.25 0.125 5 1 C7.3125 4.0625 7.3125 4.0625 9 7 C5.56072421 5.7580393 2.74792181 4.44259716 0 2 C0 1.34 0 0.68 0 0 Z " fill="#A9CED9" transform="translate(110,235)"/>
<path d="M0 0 C2.72574271 0.37330824 3.80822085 0.79194601 5.703125 2.84765625 C6.21359375 3.57855469 6.7240625 4.30945313 7.25 5.0625 C8.03117187 6.16271484 8.03117187 6.16271484 8.828125 7.28515625 C9.21484375 7.85105469 9.6015625 8.41695312 10 9 C6.78956118 7.61811547 4.95063635 6.07578097 2.75 3.375 C2.22921875 2.74335938 1.7084375 2.11171875 1.171875 1.4609375 C0.78515625 0.97882813 0.3984375 0.49671875 0 0 Z " fill="#AFD0DA" transform="translate(96,223)"/>
<path d="M0 0 C0.12375 0.639375 0.2475 1.27875 0.375 1.9375 C0.684375 2.9584375 0.684375 2.9584375 1 4 C1.66 4.33 2.32 4.66 3 5 C-0.8503105 7.56687367 -2.58569763 6.83288724 -7 6 C-7 5.34 -7 4.68 -7 4 C-5.02 4.66 -3.04 5.32 -1 6 C-0.67 4.02 -0.34 2.04 0 0 Z " fill="#A9CDD5" transform="translate(266,141)"/>
<path d="M0 0 C0.33 0.66 0.66 1.32 1 2 C1.515625 1.835 2.03125 1.67 2.5625 1.5 C5.73363876 0.84951 8.77218334 0.9379266 12 1 C12 1.33 12 1.66 12 2 C11.38511719 2.12117188 10.77023438 2.24234375 10.13671875 2.3671875 C9.32847656 2.53476563 8.52023438 2.70234375 7.6875 2.875 C6.88699219 3.03742188 6.08648437 3.19984375 5.26171875 3.3671875 C2.74698882 3.94478999 2.74698882 3.94478999 0 6 C0 4.02 0 2.04 0 0 Z " fill="#AED5DD" transform="translate(239,80)"/>
<path d="M0 0 C0.66 0.33 1.32 0.66 2 1 C2 3.64 2 6.28 2 9 C0 8 0 8 -1.25 5.625 C-1.4975 4.75875 -1.745 3.8925 -2 3 C-1.34 2.01 -0.68 1.02 0 0 Z " fill="#1C7598" transform="translate(228,167)"/>
<path d="M0 0 C-1.28813342 0.83878455 -2.58063256 1.67086783 -3.875 2.5 C-4.59429687 2.9640625 -5.31359375 3.428125 -6.0546875 3.90625 C-8 5 -8 5 -10 5 C-10 4.34 -10 3.68 -10 3 C-3.375 -1.125 -3.375 -1.125 0 0 Z " fill="#A8CBD6" transform="translate(122,162)"/>
<path d="M0 0 C6.625 0.75 6.625 0.75 10 3 C4.25 4.125 4.25 4.125 2 3 C2 2.34 2 1.68 2 1 C1.34 0.67 0.68 0.34 0 0 Z " fill="#A5CDD2" transform="translate(133,41)"/>
<path d="M0 0 C0.598125 0.763125 1.19625 1.52625 1.8125 2.3125 C3.46959332 4.3483575 5.10297674 6.1978279 7 8 C6.67 8.66 6.34 9.32 6 10 C2.99203895 7.99469263 1.27992362 6.41312965 0 3 C0 2.01 0 1.02 0 0 Z " fill="#AACED8" transform="translate(238,125)"/>
<path d="M0 0 C-2.64 1.98 -5.28 3.96 -8 6 C-7.8125 3.625 -7.8125 3.625 -7 1 C-2.77108434 -1.38554217 -2.77108434 -1.38554217 0 0 Z " fill="#AACCD3" transform="translate(113,65)"/>
<path d="M0 0 C1.65 0.99 3.3 1.98 5 3 C2.66785852 4.20628008 0.50357861 5.1654738 -2 6 C-1.34 4.02 -0.68 2.04 0 0 Z " fill="#9EC8D1" transform="translate(125,224)"/>
<path d="M0 0 C1.16945792 0.80847729 2.33550461 1.62189112 3.5 2.4375 C4.47453125 3.11619141 4.47453125 3.11619141 5.46875 3.80859375 C5.9740625 4.20175781 6.479375 4.59492188 7 5 C7 5.33 7 5.66 7 6 C5.02 6 3.04 6 1 6 C0.67 4.02 0.34 2.04 0 0 Z " fill="#A3CBD6" transform="translate(115,216)"/>
<path d="M0 0 C0.99 0 1.98 0 3 0 C3 0.99 3 1.98 3 3 C3.66 3 4.32 3 5 3 C5.33 4.65 5.66 6.3 6 8 C1.125 3.375 1.125 3.375 0 0 Z " fill="#0F6D90" transform="translate(217,157)"/>
<path d="M0 0 C2.50298434 2.93828597 3.46930939 5.17902761 4 9 C1.46268636 7.73134318 1.21353154 6.50290879 0 4 C-0.66 3.34 -1.32 2.68 -2 2 C-1.34 1.34 -0.68 0.68 0 0 Z " fill="#A6CDD6" transform="translate(280,84)"/>
</svg>
